<?xml version="1.0" encoding="utf-8"?>
<svg xmlns="http://www.w3.org/2000/svg" xmlns:xlink="http://www.w3.org/1999/xlink" width="600" height="400" viewBox="0 0 2400 1600">
<defs>
  <clipPath id="clip0100">
    <rect x="0" y="0" width="2400" height="1600"/>
  </clipPath>
</defs>
<polygon clip-path="url(#clip0100)" points="
0,1600 2400,1600 2400,0 0,0 
  " fill="#ffffff" fill-rule="evenodd" fill-opacity="1"/>
<defs>
  <clipPath id="clip0101">
    <rect x="480" y="0" width="1681" height="1600"/>
  </clipPath>
</defs>
<polygon clip-path="url(#clip0100)" points="
237.767,1440.48 2321.26,1440.48 2321.26,47.2441 237.767,47.2441 
  " fill="#ffffff" fill-rule="evenodd" fill-opacity="1"/>
<defs>
  <clipPath id="clip0102">
    <rect x="237" y="47" width="2084" height="1394"/>
  </clipPath>
</defs>
<polyline clip-path="url(#clip0102)" style="stroke:#000000; stroke-width:2; stroke-opacity:0.1; fill:none" points="
  434.777,1440.48 434.777,47.2441 
  "/>
<polyline clip-path="url(#clip0102)" style="stroke:#000000; stroke-width:2; stroke-opacity:0.1; fill:none" points="
  846.843,1440.48 846.843,47.2441 
  "/>
<polyline clip-path="url(#clip0102)" style="stroke:#000000; stroke-width:2; stroke-opacity:0.1; fill:none" points="
  1258.91,1440.48 1258.91,47.2441 
  "/>
<polyline clip-path="url(#clip0102)" style="stroke:#000000; stroke-width:2; stroke-opacity:0.1; fill:none" points="
  1670.98,1440.48 1670.98,47.2441 
  "/>
<polyline clip-path="url(#clip0102)" style="stroke:#000000; stroke-width:2; stroke-opacity:0.1; fill:none" points="
  2083.04,1440.48 2083.04,47.2441 
  "/>
<polyline clip-path="url(#clip0102)" style="stroke:#000000; stroke-width:2; stroke-opacity:0.1; fill:none" points="
  237.767,1401.05 2321.26,1401.05 
  "/>
<polyline clip-path="url(#clip0102)" style="stroke:#000000; stroke-width:2; stroke-opacity:0.1; fill:none" points="
  237.767,1021.17 2321.26,1021.17 
  "/>
<polyline clip-path="url(#clip0102)" style="stroke:#000000; stroke-width:2; stroke-opacity:0.1; fill:none" points="
  237.767,641.296 2321.26,641.296 
  "/>
<polyline clip-path="url(#clip0102)" style="stroke:#000000; stroke-width:2; stroke-opacity:0.1; fill:none" points="
  237.767,261.419 2321.26,261.419 
  "/>
<polyline clip-path="url(#clip0100)" style="stroke:#000000; stroke-width:4; stroke-opacity:1; fill:none" points="
  237.767,1440.48 2321.26,1440.48 
  "/>
<polyline clip-path="url(#clip0100)" style="stroke:#000000; stroke-width:4; stroke-opacity:1; fill:none" points="
  237.767,1440.48 237.767,47.2441 
  "/>
<polyline clip-path="url(#clip0100)" style="stroke:#000000; stroke-width:4; stroke-opacity:1; fill:none" points="
  434.777,1440.48 434.777,1419.58 
  "/>
<polyline clip-path="url(#clip0100)" style="stroke:#000000; stroke-width:4; stroke-opacity:1; fill:none" points="
  846.843,1440.48 846.843,1419.58 
  "/>
<polyline clip-path="url(#clip0100)" style="stroke:#000000; stroke-width:4; stroke-opacity:1; fill:none" points="
  1258.91,1440.48 1258.91,1419.58 
  "/>
<polyline clip-path="url(#clip0100)" style="stroke:#000000; stroke-width:4; stroke-opacity:1; fill:none" points="
  1670.98,1440.48 1670.98,1419.58 
  "/>
<polyline clip-path="url(#clip0100)" style="stroke:#000000; stroke-width:4; stroke-opacity:1; fill:none" points="
  2083.04,1440.48 2083.04,1419.58 
  "/>
<polyline clip-path="url(#clip0100)" style="stroke:#000000; stroke-width:4; stroke-opacity:1; fill:none" points="
  237.767,1401.05 269.02,1401.05 
  "/>
<polyline clip-path="url(#clip0100)" style="stroke:#000000; stroke-width:4; stroke-opacity:1; fill:none" points="
  237.767,1021.17 269.02,1021.17 
  "/>
<polyline clip-path="url(#clip0100)" style="stroke:#000000; stroke-width:4; stroke-opacity:1; fill:none" points="
  237.767,641.296 269.02,641.296 
  "/>
<polyline clip-path="url(#clip0100)" style="stroke:#000000; stroke-width:4; stroke-opacity:1; fill:none" points="
  237.767,261.419 269.02,261.419 
  "/>
<g clip-path="url(#clip0100)">
<text style="fill:#000000; fill-opacity:1; font-family:Arial,Helvetica Neue,Helvetica,sans-serif; font-size:48px; text-anchor:middle;" transform="rotate(0, 434.777, 1494.48)" x="434.777" y="1494.48">-0.010</text>
</g>
<g clip-path="url(#clip0100)">
<text style="fill:#000000; fill-opacity:1; font-family:Arial,Helvetica Neue,Helvetica,sans-serif; font-size:48px; text-anchor:middle;" transform="rotate(0, 846.843, 1494.48)" x="846.843" y="1494.48">-0.005</text>
</g>
<g clip-path="url(#clip0100)">
<text style="fill:#000000; fill-opacity:1; font-family:Arial,Helvetica Neue,Helvetica,sans-serif; font-size:48px; text-anchor:middle;" transform="rotate(0, 1258.91, 1494.48)" x="1258.91" y="1494.48">0.000</text>
</g>
<g clip-path="url(#clip0100)">
<text style="fill:#000000; fill-opacity:1; font-family:Arial,Helvetica Neue,Helvetica,sans-serif; font-size:48px; text-anchor:middle;" transform="rotate(0, 1670.98, 1494.48)" x="1670.98" y="1494.48">0.005</text>
</g>
<g clip-path="url(#clip0100)">
<text style="fill:#000000; fill-opacity:1; font-family:Arial,Helvetica Neue,Helvetica,sans-serif; font-size:48px; text-anchor:middle;" transform="rotate(0, 2083.04, 1494.48)" x="2083.04" y="1494.48">0.010</text>
</g>
<g clip-path="url(#clip0100)">
<text style="fill:#000000; fill-opacity:1; font-family:Arial,Helvetica Neue,Helvetica,sans-serif; font-size:48px; text-anchor:end;" transform="rotate(0, 213.767, 1418.55)" x="213.767" y="1418.55">0</text>
</g>
<g clip-path="url(#clip0100)">
<text style="fill:#000000; fill-opacity:1; font-family:Arial,Helvetica Neue,Helvetica,sans-serif; font-size:48px; text-anchor:end;" transform="rotate(0, 213.767, 1038.67)" x="213.767" y="1038.67">200</text>
</g>
<g clip-path="url(#clip0100)">
<text style="fill:#000000; fill-opacity:1; font-family:Arial,Helvetica Neue,Helvetica,sans-serif; font-size:48px; text-anchor:end;" transform="rotate(0, 213.767, 658.796)" x="213.767" y="658.796">400</text>
</g>
<g clip-path="url(#clip0100)">
<text style="fill:#000000; fill-opacity:1; font-family:Arial,Helvetica Neue,Helvetica,sans-serif; font-size:48px; text-anchor:end;" transform="rotate(0, 213.767, 278.919)" x="213.767" y="278.919">600</text>
</g>
<g clip-path="url(#clip0100)">
<text style="fill:#000000; fill-opacity:1; font-family:Arial,Helvetica Neue,Helvetica,sans-serif; font-size:66px; text-anchor:middle;" transform="rotate(0, 1279.51, 1590.4)" x="1279.51" y="1590.4">r</text>
</g>
<g clip-path="url(#clip0100)">
<text style="fill:#000000; fill-opacity:1; font-family:Arial,Helvetica Neue,Helvetica,sans-serif; font-size:66px; text-anchor:middle;" transform="rotate(-90, 57.6, 743.863)" x="57.6" y="743.863">Counts</text>
</g>
<polygon clip-path="url(#clip0102)" points="
352.363,1395.35 352.363,1401.05 393.57,1401.05 393.57,1395.35 352.363,1395.35 352.363,1395.35 
  " fill="#009af9" fill-rule="evenodd" fill-opacity="1"/>
<polyline clip-path="url(#clip0102)" style="stroke:#000000; stroke-width:4; stroke-opacity:1; fill:none" points="
  352.363,1395.35 352.363,1401.05 393.57,1401.05 393.57,1395.35 352.363,1395.35 
  "/>
<polygon clip-path="url(#clip0102)" points="
393.57,1397.25 393.57,1401.05 434.777,1401.05 434.777,1397.25 393.57,1397.25 393.57,1397.25 
  " fill="#009af9" fill-rule="evenodd" fill-opacity="1"/>
<polyline clip-path="url(#clip0102)" style="stroke:#000000; stroke-width:4; stroke-opacity:1; fill:none" points="
  393.57,1397.25 393.57,1401.05 434.777,1401.05 434.777,1397.25 393.57,1397.25 
  "/>
<polygon clip-path="url(#clip0102)" points="
434.777,1393.45 434.777,1401.05 475.983,1401.05 475.983,1393.45 434.777,1393.45 434.777,1393.45 
  " fill="#009af9" fill-rule="evenodd" fill-opacity="1"/>
<polyline clip-path="url(#clip0102)" style="stroke:#000000; stroke-width:4; stroke-opacity:1; fill:none" points="
  434.777,1393.45 434.777,1401.05 475.983,1401.05 475.983,1393.45 434.777,1393.45 
  "/>
<polygon clip-path="url(#clip0102)" points="
475.983,1397.25 475.983,1401.05 517.19,1401.05 517.19,1397.25 475.983,1397.25 475.983,1397.25 
  " fill="#009af9" fill-rule="evenodd" fill-opacity="1"/>
<polyline clip-path="url(#clip0102)" style="stroke:#000000; stroke-width:4; stroke-opacity:1; fill:none" points="
  475.983,1397.25 475.983,1401.05 517.19,1401.05 517.19,1397.25 475.983,1397.25 
  "/>
<polygon clip-path="url(#clip0102)" points="
517.19,1378.26 517.19,1401.05 558.397,1401.05 558.397,1378.26 517.19,1378.26 517.19,1378.26 
  " fill="#009af9" fill-rule="evenodd" fill-opacity="1"/>
<polyline clip-path="url(#clip0102)" style="stroke:#000000; stroke-width:4; stroke-opacity:1; fill:none" points="
  517.19,1378.26 517.19,1401.05 558.397,1401.05 558.397,1378.26 517.19,1378.26 
  "/>
<polygon clip-path="url(#clip0102)" points="
558.397,1364.96 558.397,1401.05 599.603,1401.05 599.603,1364.96 558.397,1364.96 558.397,1364.96 
  " fill="#009af9" fill-rule="evenodd" fill-opacity="1"/>
<polyline clip-path="url(#clip0102)" style="stroke:#000000; stroke-width:4; stroke-opacity:1; fill:none" points="
  558.397,1364.96 558.397,1401.05 599.603,1401.05 599.603,1364.96 558.397,1364.96 
  "/>
<polygon clip-path="url(#clip0102)" points="
599.603,1353.57 599.603,1401.05 640.81,1401.05 640.81,1353.57 599.603,1353.57 599.603,1353.57 
  " fill="#009af9" fill-rule="evenodd" fill-opacity="1"/>
<polyline clip-path="url(#clip0102)" style="stroke:#000000; stroke-width:4; stroke-opacity:1; fill:none" points="
  599.603,1353.57 599.603,1401.05 640.81,1401.05 640.81,1353.57 599.603,1353.57 
  "/>
<polygon clip-path="url(#clip0102)" points="
640.81,1334.57 640.81,1401.05 682.017,1401.05 682.017,1334.57 640.81,1334.57 640.81,1334.57 
  " fill="#009af9" fill-rule="evenodd" fill-opacity="1"/>
<polyline clip-path="url(#clip0102)" style="stroke:#000000; stroke-width:4; stroke-opacity:1; fill:none" points="
  640.81,1334.57 640.81,1401.05 682.017,1401.05 682.017,1334.57 640.81,1334.57 
  "/>
<polygon clip-path="url(#clip0102)" points="
682.017,1309.88 682.017,1401.05 723.223,1401.05 723.223,1309.88 682.017,1309.88 682.017,1309.88 
  " fill="#009af9" fill-rule="evenodd" fill-opacity="1"/>
<polyline clip-path="url(#clip0102)" style="stroke:#000000; stroke-width:4; stroke-opacity:1; fill:none" points="
  682.017,1309.88 682.017,1401.05 723.223,1401.05 723.223,1309.88 682.017,1309.88 
  "/>
<polygon clip-path="url(#clip0102)" points="
723.223,1269.99 723.223,1401.05 764.43,1401.05 764.43,1269.99 723.223,1269.99 723.223,1269.99 
  " fill="#009af9" fill-rule="evenodd" fill-opacity="1"/>
<polyline clip-path="url(#clip0102)" style="stroke:#000000; stroke-width:4; stroke-opacity:1; fill:none" points="
  723.223,1269.99 723.223,1401.05 764.43,1401.05 764.43,1269.99 723.223,1269.99 
  "/>
<polygon clip-path="url(#clip0102)" points="
764.43,1205.41 764.43,1401.05 805.637,1401.05 805.637,1205.41 764.43,1205.41 764.43,1205.41 
  " fill="#009af9" fill-rule="evenodd" fill-opacity="1"/>
<polyline clip-path="url(#clip0102)" style="stroke:#000000; stroke-width:4; stroke-opacity:1; fill:none" points="
  764.43,1205.41 764.43,1401.05 805.637,1401.05 805.637,1205.41 764.43,1205.41 
  "/>
<polygon clip-path="url(#clip0102)" points="
805.637,1156.03 805.637,1401.05 846.843,1401.05 846.843,1156.03 805.637,1156.03 805.637,1156.03 
  " fill="#009af9" fill-rule="evenodd" fill-opacity="1"/>
<polyline clip-path="url(#clip0102)" style="stroke:#000000; stroke-width:4; stroke-opacity:1; fill:none" points="
  805.637,1156.03 805.637,1401.05 846.843,1401.05 846.843,1156.03 805.637,1156.03 
  "/>
<polygon clip-path="url(#clip0102)" points="
846.843,1074.36 846.843,1401.05 888.05,1401.05 888.05,1074.36 846.843,1074.36 846.843,1074.36 
  " fill="#009af9" fill-rule="evenodd" fill-opacity="1"/>
<polyline clip-path="url(#clip0102)" style="stroke:#000000; stroke-width:4; stroke-opacity:1; fill:none" points="
  846.843,1074.36 846.843,1401.05 888.05,1401.05 888.05,1074.36 846.843,1074.36 
  "/>
<polygon clip-path="url(#clip0102)" points="
888.05,941.4 888.05,1401.05 929.257,1401.05 929.257,941.4 888.05,941.4 888.05,941.4 
  " fill="#009af9" fill-rule="evenodd" fill-opacity="1"/>
<polyline clip-path="url(#clip0102)" style="stroke:#000000; stroke-width:4; stroke-opacity:1; fill:none" points="
  888.05,941.4 888.05,1401.05 929.257,1401.05 929.257,941.4 888.05,941.4 
  "/>
<polygon clip-path="url(#clip0102)" points="
929.257,816.04 929.257,1401.05 970.463,1401.05 970.463,816.04 929.257,816.04 929.257,816.04 
  " fill="#009af9" fill-rule="evenodd" fill-opacity="1"/>
<polyline clip-path="url(#clip0102)" style="stroke:#000000; stroke-width:4; stroke-opacity:1; fill:none" points="
  929.257,816.04 929.257,1401.05 970.463,1401.05 970.463,816.04 929.257,816.04 
  "/>
<polygon clip-path="url(#clip0102)" points="
970.463,728.668 970.463,1401.05 1011.67,1401.05 1011.67,728.668 970.463,728.668 970.463,728.668 
  " fill="#009af9" fill-rule="evenodd" fill-opacity="1"/>
<polyline clip-path="url(#clip0102)" style="stroke:#000000; stroke-width:4; stroke-opacity:1; fill:none" points="
  970.463,728.668 970.463,1401.05 1011.67,1401.05 1011.67,728.668 970.463,728.668 
  "/>
<polygon clip-path="url(#clip0102)" points="
1011.67,523.534 1011.67,1401.05 1052.88,1401.05 1052.88,523.534 1011.67,523.534 1011.67,523.534 
  " fill="#009af9" fill-rule="evenodd" fill-opacity="1"/>
<polyline clip-path="url(#clip0102)" style="stroke:#000000; stroke-width:4; stroke-opacity:1; fill:none" points="
  1011.67,523.534 1011.67,1401.05 1052.88,1401.05 1052.88,523.534 1011.67,523.534 
  "/>
<polygon clip-path="url(#clip0102)" points="
1052.88,401.974 1052.88,1401.05 1094.08,1401.05 1094.08,401.974 1052.88,401.974 1052.88,401.974 
  " fill="#009af9" fill-rule="evenodd" fill-opacity="1"/>
<polyline clip-path="url(#clip0102)" style="stroke:#000000; stroke-width:4; stroke-opacity:1; fill:none" points="
  1052.88,401.974 1052.88,1401.05 1094.08,1401.05 1094.08,401.974 1052.88,401.974 
  "/>
<polygon clip-path="url(#clip0102)" points="
1094.08,333.596 1094.08,1401.05 1135.29,1401.05 1135.29,333.596 1094.08,333.596 1094.08,333.596 
  " fill="#009af9" fill-rule="evenodd" fill-opacity="1"/>
<polyline clip-path="url(#clip0102)" style="stroke:#000000; stroke-width:4; stroke-opacity:1; fill:none" points="
  1094.08,333.596 1094.08,1401.05 1135.29,1401.05 1135.29,333.596 1094.08,333.596 
  "/>
<polygon clip-path="url(#clip0102)" points="
1135.29,212.035 1135.29,1401.05 1176.5,1401.05 1176.5,212.035 1135.29,212.035 1135.29,212.035 
  " fill="#009af9" fill-rule="evenodd" fill-opacity="1"/>
<polyline clip-path="url(#clip0102)" style="stroke:#000000; stroke-width:4; stroke-opacity:1; fill:none" points="
  1135.29,212.035 1135.29,1401.05 1176.5,1401.05 1176.5,212.035 1135.29,212.035 
  "/>
<polygon clip-path="url(#clip0102)" points="
1176.5,145.556 1176.5,1401.05 1217.7,1401.05 1217.7,145.556 1176.5,145.556 1176.5,145.556 
  " fill="#009af9" fill-rule="evenodd" fill-opacity="1"/>
<polyline clip-path="url(#clip0102)" style="stroke:#000000; stroke-width:4; stroke-opacity:1; fill:none" points="
  1176.5,145.556 1176.5,1401.05 1217.7,1401.05 1217.7,145.556 1176.5,145.556 
  "/>
<polygon clip-path="url(#clip0102)" points="
1217.7,196.84 1217.7,1401.05 1258.91,1401.05 1258.91,196.84 1217.7,196.84 1217.7,196.84 
  " fill="#009af9" fill-rule="evenodd" fill-opacity="1"/>
<polyline clip-path="url(#clip0102)" style="stroke:#000000; stroke-width:4; stroke-opacity:1; fill:none" points="
  1217.7,196.84 1217.7,1401.05 1258.91,1401.05 1258.91,196.84 1217.7,196.84 
  "/>
<polygon clip-path="url(#clip0102)" points="
1258.91,86.6754 1258.91,1401.05 1300.12,1401.05 1300.12,86.6754 1258.91,86.6754 1258.91,86.6754 
  " fill="#009af9" fill-rule="evenodd" fill-opacity="1"/>
<polyline clip-path="url(#clip0102)" style="stroke:#000000; stroke-width:4; stroke-opacity:1; fill:none" points="
  1258.91,86.6754 1258.91,1401.05 1300.12,1401.05 1300.12,86.6754 1258.91,86.6754 
  "/>
<polygon clip-path="url(#clip0102)" points="
1300.12,164.55 1300.12,1401.05 1341.32,1401.05 1341.32,164.55 1300.12,164.55 1300.12,164.55 
  " fill="#009af9" fill-rule="evenodd" fill-opacity="1"/>
<polyline clip-path="url(#clip0102)" style="stroke:#000000; stroke-width:4; stroke-opacity:1; fill:none" points="
  1300.12,164.55 1300.12,1401.05 1341.32,1401.05 1341.32,164.55 1300.12,164.55 
  "/>
<polygon clip-path="url(#clip0102)" points="
1341.32,276.614 1341.32,1401.05 1382.53,1401.05 1382.53,276.614 1341.32,276.614 1341.32,276.614 
  " fill="#009af9" fill-rule="evenodd" fill-opacity="1"/>
<polyline clip-path="url(#clip0102)" style="stroke:#000000; stroke-width:4; stroke-opacity:1; fill:none" points="
  1341.32,276.614 1341.32,1401.05 1382.53,1401.05 1382.53,276.614 1341.32,276.614 
  "/>
<polygon clip-path="url(#clip0102)" points="
1382.53,272.815 1382.53,1401.05 1423.74,1401.05 1423.74,272.815 1382.53,272.815 1382.53,272.815 
  " fill="#009af9" fill-rule="evenodd" fill-opacity="1"/>
<polyline clip-path="url(#clip0102)" style="stroke:#000000; stroke-width:4; stroke-opacity:1; fill:none" points="
  1382.53,272.815 1382.53,1401.05 1423.74,1401.05 1423.74,272.815 1382.53,272.815 
  "/>
<polygon clip-path="url(#clip0102)" points="
1423.74,457.056 1423.74,1401.05 1464.94,1401.05 1464.94,457.056 1423.74,457.056 1423.74,457.056 
  " fill="#009af9" fill-rule="evenodd" fill-opacity="1"/>
<polyline clip-path="url(#clip0102)" style="stroke:#000000; stroke-width:4; stroke-opacity:1; fill:none" points="
  1423.74,457.056 1423.74,1401.05 1464.94,1401.05 1464.94,457.056 1423.74,457.056 
  "/>
<polygon clip-path="url(#clip0102)" points="
1464.94,571.019 1464.94,1401.05 1506.15,1401.05 1506.15,571.019 1464.94,571.019 1464.94,571.019 
  " fill="#009af9" fill-rule="evenodd" fill-opacity="1"/>
<polyline clip-path="url(#clip0102)" style="stroke:#000000; stroke-width:4; stroke-opacity:1; fill:none" points="
  1464.94,571.019 1464.94,1401.05 1506.15,1401.05 1506.15,571.019 1464.94,571.019 
  "/>
<polygon clip-path="url(#clip0102)" points="
1506.15,736.266 1506.15,1401.05 1547.36,1401.05 1547.36,736.266 1506.15,736.266 1506.15,736.266 
  " fill="#009af9" fill-rule="evenodd" fill-opacity="1"/>
<polyline clip-path="url(#clip0102)" style="stroke:#000000; stroke-width:4; stroke-opacity:1; fill:none" points="
  1506.15,736.266 1506.15,1401.05 1547.36,1401.05 1547.36,736.266 1506.15,736.266 
  "/>
<polygon clip-path="url(#clip0102)" points="
1547.36,857.827 1547.36,1401.05 1588.56,1401.05 1588.56,857.827 1547.36,857.827 1547.36,857.827 
  " fill="#009af9" fill-rule="evenodd" fill-opacity="1"/>
<polyline clip-path="url(#clip0102)" style="stroke:#000000; stroke-width:4; stroke-opacity:1; fill:none" points="
  1547.36,857.827 1547.36,1401.05 1588.56,1401.05 1588.56,857.827 1547.36,857.827 
  "/>
<polygon clip-path="url(#clip0102)" points="
1588.56,937.601 1588.56,1401.05 1629.77,1401.05 1629.77,937.601 1588.56,937.601 1588.56,937.601 
  " fill="#009af9" fill-rule="evenodd" fill-opacity="1"/>
<polyline clip-path="url(#clip0102)" style="stroke:#000000; stroke-width:4; stroke-opacity:1; fill:none" points="
  1588.56,937.601 1588.56,1401.05 1629.77,1401.05 1629.77,937.601 1588.56,937.601 
  "/>
<polygon clip-path="url(#clip0102)" points="
1629.77,1034.47 1629.77,1401.05 1670.98,1401.05 1670.98,1034.47 1629.77,1034.47 1629.77,1034.47 
  " fill="#009af9" fill-rule="evenodd" fill-opacity="1"/>
<polyline clip-path="url(#clip0102)" style="stroke:#000000; stroke-width:4; stroke-opacity:1; fill:none" points="
  1629.77,1034.47 1629.77,1401.05 1670.98,1401.05 1670.98,1034.47 1629.77,1034.47 
  "/>
<polygon clip-path="url(#clip0102)" points="
1670.98,1125.64 1670.98,1401.05 1712.18,1401.05 1712.18,1125.64 1670.98,1125.64 1670.98,1125.64 
  " fill="#009af9" fill-rule="evenodd" fill-opacity="1"/>
<polyline clip-path="url(#clip0102)" style="stroke:#000000; stroke-width:4; stroke-opacity:1; fill:none" points="
  1670.98,1125.64 1670.98,1401.05 1712.18,1401.05 1712.18,1125.64 1670.98,1125.64 
  "/>
<polygon clip-path="url(#clip0102)" points="
1712.18,1224.41 1712.18,1401.05 1753.39,1401.05 1753.39,1224.41 1712.18,1224.41 1712.18,1224.41 
  " fill="#009af9" fill-rule="evenodd" fill-opacity="1"/>
<polyline clip-path="url(#clip0102)" style="stroke:#000000; stroke-width:4; stroke-opacity:1; fill:none" points="
  1712.18,1224.41 1712.18,1401.05 1753.39,1401.05 1753.39,1224.41 1712.18,1224.41 
  "/>
<polygon clip-path="url(#clip0102)" points="
1753.39,1279.49 1753.39,1401.05 1794.6,1401.05 1794.6,1279.49 1753.39,1279.49 1753.39,1279.49 
  " fill="#009af9" fill-rule="evenodd" fill-opacity="1"/>
<polyline clip-path="url(#clip0102)" style="stroke:#000000; stroke-width:4; stroke-opacity:1; fill:none" points="
  1753.39,1279.49 1753.39,1401.05 1794.6,1401.05 1794.6,1279.49 1753.39,1279.49 
  "/>
<polygon clip-path="url(#clip0102)" points="
1794.6,1275.69 1794.6,1401.05 1835.8,1401.05 1835.8,1275.69 1794.6,1275.69 1794.6,1275.69 
  " fill="#009af9" fill-rule="evenodd" fill-opacity="1"/>
<polyline clip-path="url(#clip0102)" style="stroke:#000000; stroke-width:4; stroke-opacity:1; fill:none" points="
  1794.6,1275.69 1794.6,1401.05 1835.8,1401.05 1835.8,1275.69 1794.6,1275.69 
  "/>
<polygon clip-path="url(#clip0102)" points="
1835.8,1319.38 1835.8,1401.05 1877.01,1401.05 1877.01,1319.38 1835.8,1319.38 1835.8,1319.38 
  " fill="#009af9" fill-rule="evenodd" fill-opacity="1"/>
<polyline clip-path="url(#clip0102)" style="stroke:#000000; stroke-width:4; stroke-opacity:1; fill:none" points="
  1835.8,1319.38 1835.8,1401.05 1877.01,1401.05 1877.01,1319.38 1835.8,1319.38 
  "/>
<polygon clip-path="url(#clip0102)" points="
1877.01,1359.26 1877.01,1401.05 1918.22,1401.05 1918.22,1359.26 1877.01,1359.26 1877.01,1359.26 
  " fill="#009af9" fill-rule="evenodd" fill-opacity="1"/>
<polyline clip-path="url(#clip0102)" style="stroke:#000000; stroke-width:4; stroke-opacity:1; fill:none" points="
  1877.01,1359.26 1877.01,1401.05 1918.22,1401.05 1918.22,1359.26 1877.01,1359.26 
  "/>
<polygon clip-path="url(#clip0102)" points="
1918.22,1376.36 1918.22,1401.05 1959.42,1401.05 1959.42,1376.36 1918.22,1376.36 1918.22,1376.36 
  " fill="#009af9" fill-rule="evenodd" fill-opacity="1"/>
<polyline clip-path="url(#clip0102)" style="stroke:#000000; stroke-width:4; stroke-opacity:1; fill:none" points="
  1918.22,1376.36 1918.22,1401.05 1959.42,1401.05 1959.42,1376.36 1918.22,1376.36 
  "/>
<polygon clip-path="url(#clip0102)" points="
1959.42,1385.86 1959.42,1401.05 2000.63,1401.05 2000.63,1385.86 1959.42,1385.86 1959.42,1385.86 
  " fill="#009af9" fill-rule="evenodd" fill-opacity="1"/>
<polyline clip-path="url(#clip0102)" style="stroke:#000000; stroke-width:4; stroke-opacity:1; fill:none" points="
  1959.42,1385.86 1959.42,1401.05 2000.63,1401.05 2000.63,1385.86 1959.42,1385.86 
  "/>
<polygon clip-path="url(#clip0102)" points="
2000.63,1387.76 2000.63,1401.05 2041.84,1401.05 2041.84,1387.76 2000.63,1387.76 2000.63,1387.76 
  " fill="#009af9" fill-rule="evenodd" fill-opacity="1"/>
<polyline clip-path="url(#clip0102)" style="stroke:#000000; stroke-width:4; stroke-opacity:1; fill:none" points="
  2000.63,1387.76 2000.63,1401.05 2041.84,1401.05 2041.84,1387.76 2000.63,1387.76 
  "/>
<polygon clip-path="url(#clip0102)" points="
2041.84,1397.25 2041.84,1401.05 2083.04,1401.05 2083.04,1397.25 2041.84,1397.25 2041.84,1397.25 
  " fill="#009af9" fill-rule="evenodd" fill-opacity="1"/>
<polyline clip-path="url(#clip0102)" style="stroke:#000000; stroke-width:4; stroke-opacity:1; fill:none" points="
  2041.84,1397.25 2041.84,1401.05 2083.04,1401.05 2083.04,1397.25 2041.84,1397.25 
  "/>
<polygon clip-path="url(#clip0102)" points="
2083.04,1399.15 2083.04,1401.05 2124.25,1401.05 2124.25,1399.15 2083.04,1399.15 2083.04,1399.15 
  " fill="#009af9" fill-rule="evenodd" fill-opacity="1"/>
<polyline clip-path="url(#clip0102)" style="stroke:#000000; stroke-width:4; stroke-opacity:1; fill:none" points="
  2083.04,1399.15 2083.04,1401.05 2124.25,1401.05 2124.25,1399.15 2083.04,1399.15 
  "/>
<polygon clip-path="url(#clip0102)" points="
2124.25,1399.15 2124.25,1401.05 2165.46,1401.05 2165.46,1399.15 2124.25,1399.15 2124.25,1399.15 
  " fill="#009af9" fill-rule="evenodd" fill-opacity="1"/>
<polyline clip-path="url(#clip0102)" style="stroke:#000000; stroke-width:4; stroke-opacity:1; fill:none" points="
  2124.25,1399.15 2124.25,1401.05 2165.46,1401.05 2165.46,1399.15 2124.25,1399.15 
  "/>
<polygon clip-path="url(#clip0102)" points="
2165.46,1399.15 2165.46,1401.05 2206.66,1401.05 2206.66,1399.15 2165.46,1399.15 2165.46,1399.15 
  " fill="#009af9" fill-rule="evenodd" fill-opacity="1"/>
<polyline clip-path="url(#clip0102)" style="stroke:#000000; stroke-width:4; stroke-opacity:1; fill:none" points="
  2165.46,1399.15 2165.46,1401.05 2206.66,1401.05 2206.66,1399.15 2165.46,1399.15 
  "/>
</svg>
