<?xml version="1.0" encoding="utf-8"?>
<svg xmlns="http://www.w3.org/2000/svg" xmlns:xlink="http://www.w3.org/1999/xlink" width="600" height="400" viewBox="0 0 2400 1600">
<defs>
  <clipPath id="clip9300">
    <rect x="0" y="0" width="2400" height="1600"/>
  </clipPath>
</defs>
<polygon clip-path="url(#clip9300)" points="
0,1600 2400,1600 2400,0 0,0 
  " fill="#ffffff" fill-rule="evenodd" fill-opacity="1"/>
<defs>
  <clipPath id="clip9301">
    <rect x="480" y="0" width="1681" height="1600"/>
  </clipPath>
</defs>
<polygon clip-path="url(#clip9300)" points="
237.767,1440.48 2321.26,1440.48 2321.26,47.2441 237.767,47.2441 
  " fill="#ffffff" fill-rule="evenodd" fill-opacity="1"/>
<defs>
  <clipPath id="clip9302">
    <rect x="237" y="47" width="2084" height="1394"/>
  </clipPath>
</defs>
<polyline clip-path="url(#clip9302)" style="stroke:#000000; stroke-width:2; stroke-opacity:0.1; fill:none" points="
  397.59,1440.48 397.59,47.2441 
  "/>
<polyline clip-path="url(#clip9302)" style="stroke:#000000; stroke-width:2; stroke-opacity:0.1; fill:none" points="
  849.858,1440.48 849.858,47.2441 
  "/>
<polyline clip-path="url(#clip9302)" style="stroke:#000000; stroke-width:2; stroke-opacity:0.1; fill:none" points="
  1302.13,1440.48 1302.13,47.2441 
  "/>
<polyline clip-path="url(#clip9302)" style="stroke:#000000; stroke-width:2; stroke-opacity:0.1; fill:none" points="
  1754.4,1440.48 1754.4,47.2441 
  "/>
<polyline clip-path="url(#clip9302)" style="stroke:#000000; stroke-width:2; stroke-opacity:0.1; fill:none" points="
  2206.66,1440.48 2206.66,47.2441 
  "/>
<polyline clip-path="url(#clip9302)" style="stroke:#000000; stroke-width:2; stroke-opacity:0.1; fill:none" points="
  237.767,1401.05 2321.26,1401.05 
  "/>
<polyline clip-path="url(#clip9302)" style="stroke:#000000; stroke-width:2; stroke-opacity:0.1; fill:none" points="
  237.767,1043.88 2321.26,1043.88 
  "/>
<polyline clip-path="url(#clip9302)" style="stroke:#000000; stroke-width:2; stroke-opacity:0.1; fill:none" points="
  237.767,686.717 2321.26,686.717 
  "/>
<polyline clip-path="url(#clip9302)" style="stroke:#000000; stroke-width:2; stroke-opacity:0.1; fill:none" points="
  237.767,329.549 2321.26,329.549 
  "/>
<polyline clip-path="url(#clip9300)" style="stroke:#000000; stroke-width:4; stroke-opacity:1; fill:none" points="
  237.767,1440.48 2321.26,1440.48 
  "/>
<polyline clip-path="url(#clip9300)" style="stroke:#000000; stroke-width:4; stroke-opacity:1; fill:none" points="
  237.767,1440.48 237.767,47.2441 
  "/>
<polyline clip-path="url(#clip9300)" style="stroke:#000000; stroke-width:4; stroke-opacity:1; fill:none" points="
  397.59,1440.48 397.59,1419.58 
  "/>
<polyline clip-path="url(#clip9300)" style="stroke:#000000; stroke-width:4; stroke-opacity:1; fill:none" points="
  849.858,1440.48 849.858,1419.58 
  "/>
<polyline clip-path="url(#clip9300)" style="stroke:#000000; stroke-width:4; stroke-opacity:1; fill:none" points="
  1302.13,1440.48 1302.13,1419.58 
  "/>
<polyline clip-path="url(#clip9300)" style="stroke:#000000; stroke-width:4; stroke-opacity:1; fill:none" points="
  1754.4,1440.48 1754.4,1419.58 
  "/>
<polyline clip-path="url(#clip9300)" style="stroke:#000000; stroke-width:4; stroke-opacity:1; fill:none" points="
  2206.66,1440.48 2206.66,1419.58 
  "/>
<polyline clip-path="url(#clip9300)" style="stroke:#000000; stroke-width:4; stroke-opacity:1; fill:none" points="
  237.767,1401.05 269.02,1401.05 
  "/>
<polyline clip-path="url(#clip9300)" style="stroke:#000000; stroke-width:4; stroke-opacity:1; fill:none" points="
  237.767,1043.88 269.02,1043.88 
  "/>
<polyline clip-path="url(#clip9300)" style="stroke:#000000; stroke-width:4; stroke-opacity:1; fill:none" points="
  237.767,686.717 269.02,686.717 
  "/>
<polyline clip-path="url(#clip9300)" style="stroke:#000000; stroke-width:4; stroke-opacity:1; fill:none" points="
  237.767,329.549 269.02,329.549 
  "/>
<g clip-path="url(#clip9300)">
<text style="fill:#000000; fill-opacity:1; font-family:Arial,Helvetica Neue,Helvetica,sans-serif; font-size:48px; text-anchor:middle;" transform="rotate(0, 397.59, 1494.48)" x="397.59" y="1494.48">-0.02</text>
</g>
<g clip-path="url(#clip9300)">
<text style="fill:#000000; fill-opacity:1; font-family:Arial,Helvetica Neue,Helvetica,sans-serif; font-size:48px; text-anchor:middle;" transform="rotate(0, 849.858, 1494.48)" x="849.858" y="1494.48">-0.01</text>
</g>
<g clip-path="url(#clip9300)">
<text style="fill:#000000; fill-opacity:1; font-family:Arial,Helvetica Neue,Helvetica,sans-serif; font-size:48px; text-anchor:middle;" transform="rotate(0, 1302.13, 1494.48)" x="1302.13" y="1494.48">0.00</text>
</g>
<g clip-path="url(#clip9300)">
<text style="fill:#000000; fill-opacity:1; font-family:Arial,Helvetica Neue,Helvetica,sans-serif; font-size:48px; text-anchor:middle;" transform="rotate(0, 1754.4, 1494.48)" x="1754.4" y="1494.48">0.01</text>
</g>
<g clip-path="url(#clip9300)">
<text style="fill:#000000; fill-opacity:1; font-family:Arial,Helvetica Neue,Helvetica,sans-serif; font-size:48px; text-anchor:middle;" transform="rotate(0, 2206.66, 1494.48)" x="2206.66" y="1494.48">0.02</text>
</g>
<g clip-path="url(#clip9300)">
<text style="fill:#000000; fill-opacity:1; font-family:Arial,Helvetica Neue,Helvetica,sans-serif; font-size:48px; text-anchor:end;" transform="rotate(0, 213.767, 1418.55)" x="213.767" y="1418.55">0</text>
</g>
<g clip-path="url(#clip9300)">
<text style="fill:#000000; fill-opacity:1; font-family:Arial,Helvetica Neue,Helvetica,sans-serif; font-size:48px; text-anchor:end;" transform="rotate(0, 213.767, 1061.38)" x="213.767" y="1061.38">200</text>
</g>
<g clip-path="url(#clip9300)">
<text style="fill:#000000; fill-opacity:1; font-family:Arial,Helvetica Neue,Helvetica,sans-serif; font-size:48px; text-anchor:end;" transform="rotate(0, 213.767, 704.217)" x="213.767" y="704.217">400</text>
</g>
<g clip-path="url(#clip9300)">
<text style="fill:#000000; fill-opacity:1; font-family:Arial,Helvetica Neue,Helvetica,sans-serif; font-size:48px; text-anchor:end;" transform="rotate(0, 213.767, 347.049)" x="213.767" y="347.049">600</text>
</g>
<g clip-path="url(#clip9300)">
<text style="fill:#000000; fill-opacity:1; font-family:Arial,Helvetica Neue,Helvetica,sans-serif; font-size:66px; text-anchor:middle;" transform="rotate(0, 1279.51, 1590.4)" x="1279.51" y="1590.4">r</text>
</g>
<g clip-path="url(#clip9300)">
<text style="fill:#000000; fill-opacity:1; font-family:Arial,Helvetica Neue,Helvetica,sans-serif; font-size:66px; text-anchor:middle;" transform="rotate(-90, 57.6, 743.863)" x="57.6" y="743.863">Counts</text>
</g>
<polygon clip-path="url(#clip9302)" points="
352.363,1395.69 352.363,1401.05 397.59,1401.05 397.59,1395.69 352.363,1395.69 352.363,1395.69 
  " fill="#009af9" fill-rule="evenodd" fill-opacity="1"/>
<polyline clip-path="url(#clip9302)" style="stroke:#000000; stroke-width:4; stroke-opacity:1; fill:none" points="
  352.363,1395.69 352.363,1401.05 397.59,1401.05 397.59,1395.69 352.363,1395.69 
  "/>
<polygon clip-path="url(#clip9302)" points="
397.59,1392.12 397.59,1401.05 442.817,1401.05 442.817,1392.12 397.59,1392.12 397.59,1392.12 
  " fill="#009af9" fill-rule="evenodd" fill-opacity="1"/>
<polyline clip-path="url(#clip9302)" style="stroke:#000000; stroke-width:4; stroke-opacity:1; fill:none" points="
  397.59,1392.12 397.59,1401.05 442.817,1401.05 442.817,1392.12 397.59,1392.12 
  "/>
<polygon clip-path="url(#clip9302)" points="
442.817,1397.48 442.817,1401.05 488.044,1401.05 488.044,1397.48 442.817,1397.48 442.817,1397.48 
  " fill="#009af9" fill-rule="evenodd" fill-opacity="1"/>
<polyline clip-path="url(#clip9302)" style="stroke:#000000; stroke-width:4; stroke-opacity:1; fill:none" points="
  442.817,1397.48 442.817,1401.05 488.044,1401.05 488.044,1397.48 442.817,1397.48 
  "/>
<polygon clip-path="url(#clip9302)" points="
488.044,1390.34 488.044,1401.05 533.271,1401.05 533.271,1390.34 488.044,1390.34 488.044,1390.34 
  " fill="#009af9" fill-rule="evenodd" fill-opacity="1"/>
<polyline clip-path="url(#clip9302)" style="stroke:#000000; stroke-width:4; stroke-opacity:1; fill:none" points="
  488.044,1390.34 488.044,1401.05 533.271,1401.05 533.271,1390.34 488.044,1390.34 
  "/>
<polygon clip-path="url(#clip9302)" points="
533.271,1377.84 533.271,1401.05 578.497,1401.05 578.497,1377.84 533.271,1377.84 533.271,1377.84 
  " fill="#009af9" fill-rule="evenodd" fill-opacity="1"/>
<polyline clip-path="url(#clip9302)" style="stroke:#000000; stroke-width:4; stroke-opacity:1; fill:none" points="
  533.271,1377.84 533.271,1401.05 578.497,1401.05 578.497,1377.84 533.271,1377.84 
  "/>
<polygon clip-path="url(#clip9302)" points="
578.497,1368.91 578.497,1401.05 623.724,1401.05 623.724,1368.91 578.497,1368.91 578.497,1368.91 
  " fill="#009af9" fill-rule="evenodd" fill-opacity="1"/>
<polyline clip-path="url(#clip9302)" style="stroke:#000000; stroke-width:4; stroke-opacity:1; fill:none" points="
  578.497,1368.91 578.497,1401.05 623.724,1401.05 623.724,1368.91 578.497,1368.91 
  "/>
<polygon clip-path="url(#clip9302)" points="
623.724,1342.12 623.724,1401.05 668.951,1401.05 668.951,1342.12 623.724,1342.12 623.724,1342.12 
  " fill="#009af9" fill-rule="evenodd" fill-opacity="1"/>
<polyline clip-path="url(#clip9302)" style="stroke:#000000; stroke-width:4; stroke-opacity:1; fill:none" points="
  623.724,1342.12 623.724,1401.05 668.951,1401.05 668.951,1342.12 623.724,1342.12 
  "/>
<polygon clip-path="url(#clip9302)" points="
668.951,1329.62 668.951,1401.05 714.178,1401.05 714.178,1329.62 668.951,1329.62 668.951,1329.62 
  " fill="#009af9" fill-rule="evenodd" fill-opacity="1"/>
<polyline clip-path="url(#clip9302)" style="stroke:#000000; stroke-width:4; stroke-opacity:1; fill:none" points="
  668.951,1329.62 668.951,1401.05 714.178,1401.05 714.178,1329.62 668.951,1329.62 
  "/>
<polygon clip-path="url(#clip9302)" points="
714.178,1311.76 714.178,1401.05 759.405,1401.05 759.405,1311.76 714.178,1311.76 714.178,1311.76 
  " fill="#009af9" fill-rule="evenodd" fill-opacity="1"/>
<polyline clip-path="url(#clip9302)" style="stroke:#000000; stroke-width:4; stroke-opacity:1; fill:none" points="
  714.178,1311.76 714.178,1401.05 759.405,1401.05 759.405,1311.76 714.178,1311.76 
  "/>
<polygon clip-path="url(#clip9302)" points="
759.405,1276.04 759.405,1401.05 804.632,1401.05 804.632,1276.04 759.405,1276.04 759.405,1276.04 
  " fill="#009af9" fill-rule="evenodd" fill-opacity="1"/>
<polyline clip-path="url(#clip9302)" style="stroke:#000000; stroke-width:4; stroke-opacity:1; fill:none" points="
  759.405,1276.04 759.405,1401.05 804.632,1401.05 804.632,1276.04 759.405,1276.04 
  "/>
<polygon clip-path="url(#clip9302)" points="
804.632,1172.46 804.632,1401.05 849.858,1401.05 849.858,1172.46 804.632,1172.46 804.632,1172.46 
  " fill="#009af9" fill-rule="evenodd" fill-opacity="1"/>
<polyline clip-path="url(#clip9302)" style="stroke:#000000; stroke-width:4; stroke-opacity:1; fill:none" points="
  804.632,1172.46 804.632,1401.05 849.858,1401.05 849.858,1172.46 804.632,1172.46 
  "/>
<polygon clip-path="url(#clip9302)" points="
849.858,1067.1 849.858,1401.05 895.085,1401.05 895.085,1067.1 849.858,1067.1 849.858,1067.1 
  " fill="#009af9" fill-rule="evenodd" fill-opacity="1"/>
<polyline clip-path="url(#clip9302)" style="stroke:#000000; stroke-width:4; stroke-opacity:1; fill:none" points="
  849.858,1067.1 849.858,1401.05 895.085,1401.05 895.085,1067.1 849.858,1067.1 
  "/>
<polygon clip-path="url(#clip9302)" points="
895.085,984.951 895.085,1401.05 940.312,1401.05 940.312,984.951 895.085,984.951 895.085,984.951 
  " fill="#009af9" fill-rule="evenodd" fill-opacity="1"/>
<polyline clip-path="url(#clip9302)" style="stroke:#000000; stroke-width:4; stroke-opacity:1; fill:none" points="
  895.085,984.951 895.085,1401.05 940.312,1401.05 940.312,984.951 895.085,984.951 
  "/>
<polygon clip-path="url(#clip9302)" points="
940.312,904.589 940.312,1401.05 985.539,1401.05 985.539,904.589 940.312,904.589 940.312,904.589 
  " fill="#009af9" fill-rule="evenodd" fill-opacity="1"/>
<polyline clip-path="url(#clip9302)" style="stroke:#000000; stroke-width:4; stroke-opacity:1; fill:none" points="
  940.312,904.589 940.312,1401.05 985.539,1401.05 985.539,904.589 940.312,904.589 
  "/>
<polygon clip-path="url(#clip9302)" points="
985.539,751.007 985.539,1401.05 1030.77,1401.05 1030.77,751.007 985.539,751.007 985.539,751.007 
  " fill="#009af9" fill-rule="evenodd" fill-opacity="1"/>
<polyline clip-path="url(#clip9302)" style="stroke:#000000; stroke-width:4; stroke-opacity:1; fill:none" points="
  985.539,751.007 985.539,1401.05 1030.77,1401.05 1030.77,751.007 985.539,751.007 
  "/>
<polygon clip-path="url(#clip9302)" points="
1030.77,609.926 1030.77,1401.05 1075.99,1401.05 1075.99,609.926 1030.77,609.926 1030.77,609.926 
  " fill="#009af9" fill-rule="evenodd" fill-opacity="1"/>
<polyline clip-path="url(#clip9302)" style="stroke:#000000; stroke-width:4; stroke-opacity:1; fill:none" points="
  1030.77,609.926 1030.77,1401.05 1075.99,1401.05 1075.99,609.926 1030.77,609.926 
  "/>
<polygon clip-path="url(#clip9302)" points="
1075.99,447.414 1075.99,1401.05 1121.22,1401.05 1121.22,447.414 1075.99,447.414 1075.99,447.414 
  " fill="#009af9" fill-rule="evenodd" fill-opacity="1"/>
<polyline clip-path="url(#clip9302)" style="stroke:#000000; stroke-width:4; stroke-opacity:1; fill:none" points="
  1075.99,447.414 1075.99,1401.05 1121.22,1401.05 1121.22,447.414 1075.99,447.414 
  "/>
<polygon clip-path="url(#clip9302)" points="
1121.22,322.406 1121.22,1401.05 1166.45,1401.05 1166.45,322.406 1121.22,322.406 1121.22,322.406 
  " fill="#009af9" fill-rule="evenodd" fill-opacity="1"/>
<polyline clip-path="url(#clip9302)" style="stroke:#000000; stroke-width:4; stroke-opacity:1; fill:none" points="
  1121.22,322.406 1121.22,1401.05 1166.45,1401.05 1166.45,322.406 1121.22,322.406 
  "/>
<polygon clip-path="url(#clip9302)" points="
1166.45,292.047 1166.45,1401.05 1211.67,1401.05 1211.67,292.047 1166.45,292.047 1166.45,292.047 
  " fill="#009af9" fill-rule="evenodd" fill-opacity="1"/>
<polyline clip-path="url(#clip9302)" style="stroke:#000000; stroke-width:4; stroke-opacity:1; fill:none" points="
  1166.45,292.047 1166.45,1401.05 1211.67,1401.05 1211.67,292.047 1166.45,292.047 
  "/>
<polygon clip-path="url(#clip9302)" points="
1211.67,174.181 1211.67,1401.05 1256.9,1401.05 1256.9,174.181 1211.67,174.181 1211.67,174.181 
  " fill="#009af9" fill-rule="evenodd" fill-opacity="1"/>
<polyline clip-path="url(#clip9302)" style="stroke:#000000; stroke-width:4; stroke-opacity:1; fill:none" points="
  1211.67,174.181 1211.67,1401.05 1256.9,1401.05 1256.9,174.181 1211.67,174.181 
  "/>
<polygon clip-path="url(#clip9302)" points="
1256.9,86.6754 1256.9,1401.05 1302.13,1401.05 1302.13,86.6754 1256.9,86.6754 1256.9,86.6754 
  " fill="#009af9" fill-rule="evenodd" fill-opacity="1"/>
<polyline clip-path="url(#clip9302)" style="stroke:#000000; stroke-width:4; stroke-opacity:1; fill:none" points="
  1256.9,86.6754 1256.9,1401.05 1302.13,1401.05 1302.13,86.6754 1256.9,86.6754 
  "/>
<polygon clip-path="url(#clip9302)" points="
1302.13,175.967 1302.13,1401.05 1347.35,1401.05 1347.35,175.967 1302.13,175.967 1302.13,175.967 
  " fill="#009af9" fill-rule="evenodd" fill-opacity="1"/>
<polyline clip-path="url(#clip9302)" style="stroke:#000000; stroke-width:4; stroke-opacity:1; fill:none" points="
  1302.13,175.967 1302.13,1401.05 1347.35,1401.05 1347.35,175.967 1302.13,175.967 
  "/>
<polygon clip-path="url(#clip9302)" points="
1347.35,202.755 1347.35,1401.05 1392.58,1401.05 1392.58,202.755 1347.35,202.755 1347.35,202.755 
  " fill="#009af9" fill-rule="evenodd" fill-opacity="1"/>
<polyline clip-path="url(#clip9302)" style="stroke:#000000; stroke-width:4; stroke-opacity:1; fill:none" points="
  1347.35,202.755 1347.35,1401.05 1392.58,1401.05 1392.58,202.755 1347.35,202.755 
  "/>
<polygon clip-path="url(#clip9302)" points="
1392.58,265.259 1392.58,1401.05 1437.81,1401.05 1437.81,265.259 1392.58,265.259 1392.58,265.259 
  " fill="#009af9" fill-rule="evenodd" fill-opacity="1"/>
<polyline clip-path="url(#clip9302)" style="stroke:#000000; stroke-width:4; stroke-opacity:1; fill:none" points="
  1392.58,265.259 1392.58,1401.05 1437.81,1401.05 1437.81,265.259 1392.58,265.259 
  "/>
<polygon clip-path="url(#clip9302)" points="
1437.81,374.195 1437.81,1401.05 1483.03,1401.05 1483.03,374.195 1437.81,374.195 1437.81,374.195 
  " fill="#009af9" fill-rule="evenodd" fill-opacity="1"/>
<polyline clip-path="url(#clip9302)" style="stroke:#000000; stroke-width:4; stroke-opacity:1; fill:none" points="
  1437.81,374.195 1437.81,1401.05 1483.03,1401.05 1483.03,374.195 1437.81,374.195 
  "/>
<polygon clip-path="url(#clip9302)" points="
1483.03,449.2 1483.03,1401.05 1528.26,1401.05 1528.26,449.2 1483.03,449.2 1483.03,449.2 
  " fill="#009af9" fill-rule="evenodd" fill-opacity="1"/>
<polyline clip-path="url(#clip9302)" style="stroke:#000000; stroke-width:4; stroke-opacity:1; fill:none" points="
  1483.03,449.2 1483.03,1401.05 1528.26,1401.05 1528.26,449.2 1483.03,449.2 
  "/>
<polygon clip-path="url(#clip9302)" points="
1528.26,642.071 1528.26,1401.05 1573.49,1401.05 1573.49,642.071 1528.26,642.071 1528.26,642.071 
  " fill="#009af9" fill-rule="evenodd" fill-opacity="1"/>
<polyline clip-path="url(#clip9302)" style="stroke:#000000; stroke-width:4; stroke-opacity:1; fill:none" points="
  1528.26,642.071 1528.26,1401.05 1573.49,1401.05 1573.49,642.071 1528.26,642.071 
  "/>
<polygon clip-path="url(#clip9302)" points="
1573.49,759.936 1573.49,1401.05 1618.71,1401.05 1618.71,759.936 1573.49,759.936 1573.49,759.936 
  " fill="#009af9" fill-rule="evenodd" fill-opacity="1"/>
<polyline clip-path="url(#clip9302)" style="stroke:#000000; stroke-width:4; stroke-opacity:1; fill:none" points="
  1573.49,759.936 1573.49,1401.05 1618.71,1401.05 1618.71,759.936 1573.49,759.936 
  "/>
<polygon clip-path="url(#clip9302)" points="
1618.71,902.803 1618.71,1401.05 1663.94,1401.05 1663.94,902.803 1618.71,902.803 1618.71,902.803 
  " fill="#009af9" fill-rule="evenodd" fill-opacity="1"/>
<polyline clip-path="url(#clip9302)" style="stroke:#000000; stroke-width:4; stroke-opacity:1; fill:none" points="
  1618.71,902.803 1618.71,1401.05 1663.94,1401.05 1663.94,902.803 1618.71,902.803 
  "/>
<polygon clip-path="url(#clip9302)" points="
1663.94,1029.6 1663.94,1401.05 1709.17,1401.05 1709.17,1029.6 1663.94,1029.6 1663.94,1029.6 
  " fill="#009af9" fill-rule="evenodd" fill-opacity="1"/>
<polyline clip-path="url(#clip9302)" style="stroke:#000000; stroke-width:4; stroke-opacity:1; fill:none" points="
  1663.94,1029.6 1663.94,1401.05 1709.17,1401.05 1709.17,1029.6 1663.94,1029.6 
  "/>
<polygon clip-path="url(#clip9302)" points="
1709.17,1061.74 1709.17,1401.05 1754.4,1401.05 1754.4,1061.74 1709.17,1061.74 1709.17,1061.74 
  " fill="#009af9" fill-rule="evenodd" fill-opacity="1"/>
<polyline clip-path="url(#clip9302)" style="stroke:#000000; stroke-width:4; stroke-opacity:1; fill:none" points="
  1709.17,1061.74 1709.17,1401.05 1754.4,1401.05 1754.4,1061.74 1709.17,1061.74 
  "/>
<polygon clip-path="url(#clip9302)" points="
1754.4,1188.54 1754.4,1401.05 1799.62,1401.05 1799.62,1188.54 1754.4,1188.54 1754.4,1188.54 
  " fill="#009af9" fill-rule="evenodd" fill-opacity="1"/>
<polyline clip-path="url(#clip9302)" style="stroke:#000000; stroke-width:4; stroke-opacity:1; fill:none" points="
  1754.4,1188.54 1754.4,1401.05 1799.62,1401.05 1799.62,1188.54 1754.4,1188.54 
  "/>
<polygon clip-path="url(#clip9302)" points="
1799.62,1226.04 1799.62,1401.05 1844.85,1401.05 1844.85,1226.04 1799.62,1226.04 1799.62,1226.04 
  " fill="#009af9" fill-rule="evenodd" fill-opacity="1"/>
<polyline clip-path="url(#clip9302)" style="stroke:#000000; stroke-width:4; stroke-opacity:1; fill:none" points="
  1799.62,1226.04 1799.62,1401.05 1844.85,1401.05 1844.85,1226.04 1799.62,1226.04 
  "/>
<polygon clip-path="url(#clip9302)" points="
1844.85,1299.26 1844.85,1401.05 1890.08,1401.05 1890.08,1299.26 1844.85,1299.26 1844.85,1299.26 
  " fill="#009af9" fill-rule="evenodd" fill-opacity="1"/>
<polyline clip-path="url(#clip9302)" style="stroke:#000000; stroke-width:4; stroke-opacity:1; fill:none" points="
  1844.85,1299.26 1844.85,1401.05 1890.08,1401.05 1890.08,1299.26 1844.85,1299.26 
  "/>
<polygon clip-path="url(#clip9302)" points="
1890.08,1329.62 1890.08,1401.05 1935.3,1401.05 1935.3,1329.62 1890.08,1329.62 1890.08,1329.62 
  " fill="#009af9" fill-rule="evenodd" fill-opacity="1"/>
<polyline clip-path="url(#clip9302)" style="stroke:#000000; stroke-width:4; stroke-opacity:1; fill:none" points="
  1890.08,1329.62 1890.08,1401.05 1935.3,1401.05 1935.3,1329.62 1890.08,1329.62 
  "/>
<polygon clip-path="url(#clip9302)" points="
1935.3,1343.9 1935.3,1401.05 1980.53,1401.05 1980.53,1343.9 1935.3,1343.9 1935.3,1343.9 
  " fill="#009af9" fill-rule="evenodd" fill-opacity="1"/>
<polyline clip-path="url(#clip9302)" style="stroke:#000000; stroke-width:4; stroke-opacity:1; fill:none" points="
  1935.3,1343.9 1935.3,1401.05 1980.53,1401.05 1980.53,1343.9 1935.3,1343.9 
  "/>
<polygon clip-path="url(#clip9302)" points="
1980.53,1374.26 1980.53,1401.05 2025.76,1401.05 2025.76,1374.26 1980.53,1374.26 1980.53,1374.26 
  " fill="#009af9" fill-rule="evenodd" fill-opacity="1"/>
<polyline clip-path="url(#clip9302)" style="stroke:#000000; stroke-width:4; stroke-opacity:1; fill:none" points="
  1980.53,1374.26 1980.53,1401.05 2025.76,1401.05 2025.76,1374.26 1980.53,1374.26 
  "/>
<polygon clip-path="url(#clip9302)" points="
2025.76,1377.84 2025.76,1401.05 2070.98,1401.05 2070.98,1377.84 2025.76,1377.84 2025.76,1377.84 
  " fill="#009af9" fill-rule="evenodd" fill-opacity="1"/>
<polyline clip-path="url(#clip9302)" style="stroke:#000000; stroke-width:4; stroke-opacity:1; fill:none" points="
  2025.76,1377.84 2025.76,1401.05 2070.98,1401.05 2070.98,1377.84 2025.76,1377.84 
  "/>
<polygon clip-path="url(#clip9302)" points="
2070.98,1390.34 2070.98,1401.05 2116.21,1401.05 2116.21,1390.34 2070.98,1390.34 2070.98,1390.34 
  " fill="#009af9" fill-rule="evenodd" fill-opacity="1"/>
<polyline clip-path="url(#clip9302)" style="stroke:#000000; stroke-width:4; stroke-opacity:1; fill:none" points="
  2070.98,1390.34 2070.98,1401.05 2116.21,1401.05 2116.21,1390.34 2070.98,1390.34 
  "/>
<polygon clip-path="url(#clip9302)" points="
2116.21,1399.27 2116.21,1401.05 2161.44,1401.05 2161.44,1399.27 2116.21,1399.27 2116.21,1399.27 
  " fill="#009af9" fill-rule="evenodd" fill-opacity="1"/>
<polyline clip-path="url(#clip9302)" style="stroke:#000000; stroke-width:4; stroke-opacity:1; fill:none" points="
  2116.21,1399.27 2116.21,1401.05 2161.44,1401.05 2161.44,1399.27 2116.21,1399.27 
  "/>
<polygon clip-path="url(#clip9302)" points="
2161.44,1397.48 2161.44,1401.05 2206.66,1401.05 2206.66,1397.48 2161.44,1397.48 2161.44,1397.48 
  " fill="#009af9" fill-rule="evenodd" fill-opacity="1"/>
<polyline clip-path="url(#clip9302)" style="stroke:#000000; stroke-width:4; stroke-opacity:1; fill:none" points="
  2161.44,1397.48 2161.44,1401.05 2206.66,1401.05 2206.66,1397.48 2161.44,1397.48 
  "/>
</svg>
